<svg xmlns="http://www.w3.org/2000/svg" fill="none" viewBox="0 0 104 66" height="62" width="98"><rect fill-opacity="0.02" fill="currentColor" rx="4" height="66" width="104"></rect><path fill-opacity="0.04" fill="currentColor" d="M0 4C0 1.79086 1.79086 0 4 0H13.7359V66H4C1.79086 66 0 64.2091 0 62V4Z"></path><rect fill-opacity="0.3" fill="currentColor" rx="1.39473" height="2.78946" width="7.84906" y="23.8839" x="2.94336"></rect><rect fill-opacity="0.3" fill="currentColor" rx="2" height="6.79412" width="6.86793" y="5.88135" x="3.43359"></rect><rect fill-opacity="0.3" fill="currentColor" rx="1.39473" height="2.78946" width="7.84906" y="34.4382" x="2.94336"></rect><rect fill-opacity="0.3" fill="currentColor" rx="1.39473" height="2.78946" width="7.84906" y="44.9923" x="2.94336"></rect><rect fill-opacity="0.3" fill="currentColor" rx="1.39473" height="2.78946" width="7.84906" y="55.5463" x="2.94336"></rect><rect fill-opacity="0.08" fill="currentColor" rx="2" height="8.8" width="75.437" y="4.67169" x="21.4717"></rect><rect fill-opacity="0.3" fill="currentColor" rx="1" height="4.4" width="3.92453" y="6.87158" x="25.6172"></rect><rect fill-opacity="0.3" fill="currentColor" rx="1" height="4.4" width="3.92453" y="6.87158" x="78.248"></rect><rect fill-opacity="0.3" fill="currentColor" rx="1" height="4.4" width="3.92453" y="6.87158" x="84.1348"></rect><rect fill-opacity="0.3" fill="currentColor" rx="1" height="4.4" width="3.92453" y="6.87158" x="90.0215"></rect><rect fill-opacity="0.08" fill="currentColor" rx="2" height="17.6" width="46.8212" y="19.6134" x="50.4912"></rect><rect fill-opacity="0.08" fill="currentColor" rx="2" height="17.6" width="22.1679" y="19.6134" x="21.4717"></rect><rect fill-opacity="0.08" fill="currentColor" rx="2" height="17.6" width="75.8413" y="42.4545" x="21.4717"></rect></svg>
