<svg xmlns="http://www.w3.org/2000/svg" fill="none" viewBox="0 0 104 66" height="62" width="98"><rect fill-opacity="0.02" fill="currentColor" rx="4" height="66" width="104"></rect><rect fill-opacity="0.08" fill="currentColor" rx="2" height="57.5885" width="24.0976" y="4.12146" x="5.20215"></rect><rect fill-opacity="0.3" fill="currentColor" rx="1.04605" height="2.0921" width="13.8545" y="16.8697" x="10.3232"></rect><rect fill-opacity="0.3" fill="currentColor" rx="1.04605" height="2.0921" width="9.87943" y="25.5618" x="10.3232"></rect><rect fill-opacity="0.3" fill="currentColor" rx="1.04605" height="2.0921" width="12.3826" y="34.2538" x="10.3232"></rect><rect fill-opacity="0.3" fill="currentColor" rx="1.04605" height="2.0921" width="6.08818" y="42.946" x="10.3232"></rect><rect fill-opacity="0.3" fill="currentColor" rx="1.04605" height="2.0921" width="8.09094" y="51.6384" x="10.3232"></rect><rect fill-opacity="0.08" fill="currentColor" rx="2" height="57.5885" width="62.3885" y="4.12134" x="35.5137"></rect><rect fill-opacity="0.3" fill="currentColor" rx="1.04605" height="2.0921" width="13.8545" y="14.1833" x="43.7578"></rect><rect fill-opacity="0.3" fill="currentColor" rx="1.04605" height="2.0921" width="32.8013" y="22.8753" x="43.7578"></rect><rect fill-opacity="0.3" fill="currentColor" rx="1.04605" height="2.0921" width="41.2076" y="31.5674" x="43.7578"></rect><rect fill-opacity="0.3" fill="currentColor" rx="1.04605" height="2.0921" width="32.8013" y="40.2593" x="43.7578"></rect><rect fill-opacity="0.3" fill="currentColor" rx="1.04605" height="2.0921" width="5.77482" y="48.9517" x="43.7578"></rect></svg>
