<svg xmlns="http://www.w3.org/2000/svg" fill="none" viewBox="0 0 104 66" height="62" width="98">
<rect fill-opacity="0.02" fill="currentColor" rx="4" height="66" width="104"></rect>
<path fill-opacity="0.08" fill="currentColor" d="M0 4C0 1.79086 1.79086 0 4 0H27.4717V66H4C1.79086 66 0 64.2091 0 62V4Z"></path>
<rect fill-opacity="0.3" fill="currentColor" rx="1.39473" height="2.78946" width="17.6604" y="23.8839" x="4.90625"></rect>
<rect fill-opacity="0.3" fill="currentColor" rx="2" height="9.70588" width="9.81132" y="5.88135" x="8.83008"></rect>
<rect fill-opacity="0.3" fill="currentColor" rx="1.39473" height="2.78946" width="17.6604" y="34.4382" x="4.90625"></rect>
<rect fill-opacity="0.3" fill="currentColor" rx="1.39473" height="2.78946" width="17.6604" y="44.9923" x="4.90625"></rect>
<rect fill-opacity="0.3" fill="currentColor" rx="1.39473" height="2.78946" width="17.6604" y="55.5463" x="4.90625"></rect>
<rect fill-opacity="0.08" fill="currentColor" rx="2" height="8.8" width="64.7547" y="4.67169" x="32.1523"></rect>
<rect fill-opacity="0.3" fill="currentColor" rx="1" height="4.4" width="3.92453" y="6.87158" x="35.0781"></rect>
<rect fill-opacity="0.3" fill="currentColor" rx="1" height="4.4" width="3.92453" y="6.87158" x="78.248"></rect>
<rect fill-opacity="0.3" fill="currentColor" rx="1" height="4.4" width="3.92453" y="6.87158" x="84.1348"></rect>
<rect fill-opacity="0.3" fill="currentColor" rx="1" height="4.4" width="3.92453" y="6.87158" x="90.0215"></rect>
<rect fill-opacity="0.08" fill="currentColor" rx="2" height="17.6" width="40.2264" y="19.6134" x="57.0859"></rect>
<rect fill-opacity="0.08" fill="currentColor" rx="2" height="17.6" width="19.0455" y="19.6134" x="32.1523"></rect>
<rect fill-opacity="0.08" fill="currentColor" rx="2" height="17.6" width="65.1591" y="42.4545" x="32.1523"></rect>
</svg>
