<svg xmlns="http://www.w3.org/2000/svg" fill="none" viewBox="0 0 104 66" height="62" width="98"><rect fill-opacity="0.02" fill="currentColor" rx="4" height="66" width="104"></rect><rect fill-opacity="0.3" fill="currentColor" rx="1.39473" height="2.78946" width="17.6604" y="23.8839" x="4.90625"></rect><rect fill-opacity="0.3" fill="currentColor" rx="2" height="9.70588" width="9.81132" y="5.88135" x="8.83008"></rect><rect fill-opacity="0.3" fill="currentColor" rx="1.39473" height="2.78946" width="17.6604" y="34.4381" x="4.90625"></rect><rect fill-opacity="0.3" fill="currentColor" rx="1.39473" height="2.78946" width="17.6604" y="44.9923" x="4.90625"></rect><rect fill-opacity="0.3" fill="currentColor" rx="1.39473" height="2.78946" width="17.6604" y="55.5462" x="4.90625"></rect><rect stroke-opacity="0.12" stroke="currentColor" rx="1.5" height="7.8" width="63.7547" y="5.17166" x="34.6152"></rect><rect fill-opacity="0.3" fill="currentColor" rx="1" height="4.4" width="3.92453" y="6.87158" x="37.0391"></rect><rect fill-opacity="0.3" fill="currentColor" rx="1" height="4.4" width="3.92453" y="6.87158" x="80.21"></rect><rect fill-opacity="0.3" fill="currentColor" rx="1" height="4.4" width="3.92453" y="6.87158" x="86.0957"></rect><rect fill-opacity="0.3" fill="currentColor" rx="1" height="4.4" width="3.92453" y="6.87158" x="91.002"></rect><rect stroke-opacity="0.12" stroke="currentColor" rx="1.5" height="16.6" width="39.2264" y="20.1134" x="58.9844"></rect><rect stroke-opacity="0.12" stroke="currentColor" rx="1.5" height="16.6" width="18.0455" y="20.1134" x="34.6152"></rect><rect stroke-opacity="0.12" stroke="currentColor" rx="1.5" height="16.6" width="63.7547" y="42.9545" x="34.6152"></rect></svg>
